<?xml version="1.0" standalone="no"?>
<!DOCTYPE svg PUBLIC "-//W3C//DTD SVG 1.1//EN" "http://www.w3.org/Graphics/SVG/1.1/DTD/svg11.dtd">
<svg width="299px" height="301px" version="1.1" xmlns="http://www.w3.org/2000/svg" xmlns:xlink="http://www.w3.org/1999/xlink" xml:space="preserve" style="fill-rule:evenodd;clip-rule:evenodd;stroke-linejoin:round;stroke-miterlimit:1.41421;">
    <g>
        <rect x="0" y="0" width="299.585" height="301.51" style="fill:url(#tag1);"/>
        <g>
            <path d="M209.547,82.0376L245.399,82.0376L245.399,249.35L54.1857,249.35L54.1857,82.0376L90.0382,82.0376L90.0382,70.0867C90.0382,65.1471 91.791,60.9244 95.2966,57.4188C98.8022,53.9132 103.025,52.1605 107.965,52.1605C112.904,52.1605 117.127,53.9132 120.632,57.4188C124.138,60.9244 125.891,65.1471 125.891,70.0867L125.891,82.0376L173.694,82.0376L173.694,70.0867C173.694,65.1471 175.447,60.9244 178.953,57.4188C182.458,53.9132 186.681,52.1605 191.62,52.1605C196.56,52.1605 200.783,53.9132 204.288,57.4188C207.794,60.9244 209.547,65.1471 209.547,70.0867ZM101.989,70.0867L101.989,99.9639C101.989,101.637 102.567,103.051 103.722,104.206C104.877,105.362 106.291,105.939 107.965,105.939C109.638,105.939 111.052,105.362 112.207,104.206C113.362,103.051 113.94,101.637 113.94,99.9639L113.94,70.0867C113.94,68.4136 113.362,66.9994 112.207,65.8442C111.052,64.6889 109.638,64.1113 107.965,64.1113C106.291,64.1113 104.877,64.6889 103.722,65.8442C102.567,66.9994 101.989,68.4136 101.989,70.0867ZM185.645,70.0867L185.645,99.9639C185.645,101.637 186.223,103.051 187.378,104.206C188.533,105.362 189.947,105.939 191.62,105.939C193.294,105.939 194.708,105.362 195.863,104.206C197.018,103.051 197.596,101.637 197.596,99.9639L197.596,70.0867C197.596,68.4136 197.018,66.9994 195.863,65.8442C194.708,64.6889 193.294,64.1113 191.62,64.1113C189.947,64.1113 188.533,64.6889 187.378,65.8442C186.223,66.9994 185.645,68.4136 185.645,70.0867ZM233.448,237.399L233.448,129.841L66.1365,129.841L66.1365,237.399ZM113.94,225.448L113.94,141.792L90.0382,141.792L90.0382,225.448ZM161.743,225.448L161.743,141.792L137.842,141.792L137.842,225.448ZM209.547,225.448L209.547,141.792L185.645,141.792L185.645,225.448Z" style="fill:white;fill-rule:nonzero;"/>
        </g>
    </g>
    <defs>
        <linearGradient id="tag1" x1="0" y1="0" x2="1" y2="0" gradientUnits="userSpaceOnUse" gradientTransform="matrix(1.07358e-14,-175.33,175.33,1.07358e-14,149.792,301.51)"><stop offset="0%" style="stop-color:rgb(0,157,215);stop-opacity:1"/><stop offset="100%" style="stop-color:rgb(0,116,162);stop-opacity:1"/></linearGradient>
    </defs>
</svg>
